<?xml version="1.0" ?><svg height="24px" version="1.1" viewBox="0 0 24 24" width="24px" xmlns="http://www.w3.org/2000/svg" xmlns:sketch="http://www.bohemiancoding.com/sketch/ns" xmlns:xlink="http://www.w3.org/1999/xlink"><title/><desc/><defs/><g fill="none" fill-rule="evenodd" id="miu" stroke="none" stroke-width="1"><g id="Artboard-1" transform="translate(-755.000000, -551.000000)"><g id="slice" transform="translate(215.000000, 119.000000)"/><path d="M767,563.979053 L767,571 L759.125,566.2 L757.041667,566.2 C756,566.2 756,565.133333 756,565.133333 L756,560.866667 C756,560.866667 756,559.8 757.041667,559.8 L759.125,559.8 L759.850243,559.357947 L767,563.979053 L767,563.979053 Z M767,560.406982 L767,555 L762.694578,557.624257 L767,560.406982 L767,560.406982 Z M776.407665,566.487443 C776.791323,565.396835 777,564.223791 777,563.002007 C777,559.942759 775.691674,557.189086 773.604021,555.269989 L772.838796,555.925896 C774.779165,557.665257 776,560.191061 776,563.002007 C776,564.022717 775.839026,565.005829 775.541079,565.927342 L776.407665,566.487443 L776.407665,566.487443 Z M775.00889,569.155443 C774.545107,569.79564 774.010844,570.381441 773.417486,570.90146 L772.615994,570.271717 C773.196789,569.782589 773.718144,569.225133 774.167671,568.611738 L775.00889,569.155443 L775.00889,569.155443 Z M773.885657,564.857393 C773.96084,564.416836 774,563.963995 774,563.502007 C774,561.043605 772.891101,558.844199 771.146204,557.37669 L770.375249,558.037508 C771.975416,559.320368 773,561.291536 773,563.502007 C773,563.757715 772.986289,564.010221 772.959562,564.258829 L773.885657,564.857393 L773.885657,564.857393 Z M772.795819,567.725067 C772.420874,568.327158 771.968142,568.875786 771.451677,569.356896 L770.654446,568.730501 C771.159078,568.280953 771.598204,567.759446 771.955718,567.182085 L772.795819,567.725067 L772.795819,567.725067 Z M770.972509,562.974536 C770.815643,561.478385 769.998963,560.178682 768.818718,559.371677 L768.818718,559.371677 L768.0252,560.051836 C768.842774,560.532777 769.474341,561.296026 769.785928,562.207613 L770.972509,562.974536 L770.972509,562.974536 Z M770.275335,566.096002 C769.953336,566.625575 769.535714,567.090587 769.04644,567.467067 L768.228376,566.824303 C768.71821,566.495105 769.131248,566.060443 769.434962,565.552843 L770.275335,566.096002 L770.275335,566.096002 Z M757.961914,556.801514 L777.514404,569.675781 L778.060341,568.837955 L758.507851,555.963687 L757.961914,556.801514 Z" fill="#000000" id="device-volume-loudspeaker-speaker-mute-glyph"/></g></g></svg>