<?xml version="1.0" ?><svg height="24px" version="1.1" viewBox="0 0 24 24" width="24px" xmlns="http://www.w3.org/2000/svg" xmlns:sketch="http://www.bohemiancoding.com/sketch/ns" xmlns:xlink="http://www.w3.org/1999/xlink"><title/><desc/><defs/><g fill="none" fill-rule="evenodd" id="miu" stroke="none" stroke-width="1"><g id="Artboard-1" transform="translate(-683.000000, -551.000000)"><g id="slice" transform="translate(215.000000, 119.000000)"/><path d="M687.125,559.8 L685.041667,559.8 C684,559.8 684,560.866667 684,560.866667 L684,565.133333 C684,565.133333 684,566.2 685.041667,566.2 L687.125,566.2 L695,571 L695,555 L687.125,559.8 Z M701.604021,555.269989 C703.691674,557.189086 705,559.942759 705,563.002007 C705,566.151387 703.613446,568.976921 701.417486,570.90146 L700.615994,570.271717 C702.685249,568.529054 704,565.919069 704,563.002007 C704,560.191061 702.779165,557.665257 700.838796,555.925896 L701.604021,555.269989 Z M699.146204,557.37669 C700.891101,558.844199 702,561.043605 702,563.502007 C702,565.813711 701.019495,567.896405 699.451677,569.356896 L698.654446,568.730501 C700.09362,567.448425 701,565.581064 701,563.502007 C701,561.291536 699.975416,559.320368 698.375249,558.037508 L699.146204,557.37669 Z M696.818718,559.371677 C698.135703,560.27218 699,561.78616 699,563.502007 C699,565.116879 698.234435,566.552944 697.04644,567.467067 L696.228376,566.824303 C697.29691,566.106184 698,564.886203 698,563.502007 C698,562.031868 697.206892,560.74697 696.0252,560.051836 L696.818718,559.371677 L696.818718,559.371677 Z" fill="#000000" id="device-volume-loudspeaker-speaker-up-glyph"/></g></g></svg>